<mxfile host="app.diagrams.net" modified="2023-04-21T21:43:15.820Z" agent="Mozilla/5.0 (Windows NT 10.0; Win64; x64) AppleWebKit/537.36 (KHTML, like Gecko) Chrome/112.0.0.0 Safari/537.36" etag="BgSFHrxDG1APNpLf_nVg" version="21.2.1" type="github">
  <diagram name="PÃ¡gina-1" id="pkNiwEoHCU3uFzG86L5c">
    <mxGraphModel dx="1457" dy="606" grid="1" gridSize="10" guides="1" tooltips="1" connect="1" arrows="1" fold="1" page="1" pageScale="1" pageWidth="827" pageHeight="1169" math="0" shadow="0">
      <root>
        <mxCell id="0" />
        <mxCell id="1" parent="0" />
        <mxCell id="Z1v8-S3hPdBWoo8_pZV9-46" value="" style="rounded=0;whiteSpace=wrap;html=1;" vertex="1" parent="1">
          <mxGeometry x="30" y="20" width="750" height="600" as="geometry" />
        </mxCell>
        <mxCell id="Z1v8-S3hPdBWoo8_pZV9-4" value="" style="edgeStyle=orthogonalEdgeStyle;rounded=0;orthogonalLoop=1;jettySize=auto;html=1;" edge="1" parent="1" source="Z1v8-S3hPdBWoo8_pZV9-1" target="Z1v8-S3hPdBWoo8_pZV9-3">
          <mxGeometry relative="1" as="geometry">
            <Array as="points">
              <mxPoint x="405" y="110" />
              <mxPoint x="405" y="110" />
            </Array>
          </mxGeometry>
        </mxCell>
        <mxCell id="Z1v8-S3hPdBWoo8_pZV9-6" value="" style="edgeStyle=orthogonalEdgeStyle;rounded=0;orthogonalLoop=1;jettySize=auto;html=1;entryX=0.5;entryY=0;entryDx=0;entryDy=0;" edge="1" parent="1" source="Z1v8-S3hPdBWoo8_pZV9-1" target="Z1v8-S3hPdBWoo8_pZV9-13">
          <mxGeometry relative="1" as="geometry">
            <mxPoint x="310" y="220" as="targetPoint" />
          </mxGeometry>
        </mxCell>
        <mxCell id="Z1v8-S3hPdBWoo8_pZV9-8" value="" style="edgeStyle=orthogonalEdgeStyle;rounded=0;orthogonalLoop=1;jettySize=auto;html=1;" edge="1" parent="1" source="Z1v8-S3hPdBWoo8_pZV9-1" target="Z1v8-S3hPdBWoo8_pZV9-7">
          <mxGeometry relative="1" as="geometry">
            <Array as="points">
              <mxPoint x="590" y="240" />
              <mxPoint x="590" y="240" />
            </Array>
          </mxGeometry>
        </mxCell>
        <mxCell id="Z1v8-S3hPdBWoo8_pZV9-1" value="Existe vehiculo and command BD" style="rhombus;whiteSpace=wrap;html=1;" vertex="1" parent="1">
          <mxGeometry x="340" y="180" width="130" height="120" as="geometry" />
        </mxCell>
        <mxCell id="Z1v8-S3hPdBWoo8_pZV9-3" value="{ User:&quot;&quot;, ServiceCode:&quot;&quot;, Command:&quot;&quot;}" style="whiteSpace=wrap;html=1;" vertex="1" parent="1">
          <mxGeometry x="345" y="90" width="120" height="60" as="geometry" />
        </mxCell>
        <mxCell id="Z1v8-S3hPdBWoo8_pZV9-31" value="" style="edgeStyle=orthogonalEdgeStyle;rounded=0;orthogonalLoop=1;jettySize=auto;html=1;" edge="1" parent="1" source="Z1v8-S3hPdBWoo8_pZV9-7" target="Z1v8-S3hPdBWoo8_pZV9-30">
          <mxGeometry relative="1" as="geometry" />
        </mxCell>
        <mxCell id="Z1v8-S3hPdBWoo8_pZV9-7" value="Puede ejecutar comando" style="whiteSpace=wrap;html=1;" vertex="1" parent="1">
          <mxGeometry x="620" y="210" width="120" height="60" as="geometry" />
        </mxCell>
        <mxCell id="Z1v8-S3hPdBWoo8_pZV9-9" value="Si" style="text;html=1;align=center;verticalAlign=middle;resizable=0;points=[];autosize=1;strokeColor=none;fillColor=none;" vertex="1" parent="1">
          <mxGeometry x="270" y="200" width="30" height="30" as="geometry" />
        </mxCell>
        <mxCell id="Z1v8-S3hPdBWoo8_pZV9-10" value="No" style="text;html=1;align=center;verticalAlign=middle;resizable=0;points=[];autosize=1;strokeColor=none;fillColor=none;" vertex="1" parent="1">
          <mxGeometry x="520" y="200" width="40" height="30" as="geometry" />
        </mxCell>
        <mxCell id="Z1v8-S3hPdBWoo8_pZV9-16" value="" style="edgeStyle=orthogonalEdgeStyle;rounded=0;orthogonalLoop=1;jettySize=auto;html=1;" edge="1" parent="1" source="Z1v8-S3hPdBWoo8_pZV9-13" target="Z1v8-S3hPdBWoo8_pZV9-15">
          <mxGeometry relative="1" as="geometry" />
        </mxCell>
        <mxCell id="Z1v8-S3hPdBWoo8_pZV9-40" value="" style="edgeStyle=orthogonalEdgeStyle;rounded=0;orthogonalLoop=1;jettySize=auto;html=1;" edge="1" parent="1" source="Z1v8-S3hPdBWoo8_pZV9-13" target="Z1v8-S3hPdBWoo8_pZV9-39">
          <mxGeometry relative="1" as="geometry">
            <Array as="points">
              <mxPoint x="140" y="350" />
            </Array>
          </mxGeometry>
        </mxCell>
        <mxCell id="Z1v8-S3hPdBWoo8_pZV9-13" value="Useuario tiene permisos" style="rhombus;whiteSpace=wrap;html=1;" vertex="1" parent="1">
          <mxGeometry x="170" y="290" width="120" height="110" as="geometry" />
        </mxCell>
        <mxCell id="Z1v8-S3hPdBWoo8_pZV9-42" style="edgeStyle=orthogonalEdgeStyle;rounded=0;orthogonalLoop=1;jettySize=auto;html=1;entryX=0;entryY=0.5;entryDx=0;entryDy=0;" edge="1" parent="1" source="Z1v8-S3hPdBWoo8_pZV9-15" target="Z1v8-S3hPdBWoo8_pZV9-30">
          <mxGeometry relative="1" as="geometry" />
        </mxCell>
        <mxCell id="Z1v8-S3hPdBWoo8_pZV9-15" value="No puede ejecutar comando" style="whiteSpace=wrap;html=1;" vertex="1" parent="1">
          <mxGeometry x="360" y="315" width="120" height="60" as="geometry" />
        </mxCell>
        <mxCell id="Z1v8-S3hPdBWoo8_pZV9-20" value="No" style="text;html=1;align=center;verticalAlign=middle;resizable=0;points=[];autosize=1;strokeColor=none;fillColor=none;" vertex="1" parent="1">
          <mxGeometry x="300" y="315" width="40" height="30" as="geometry" />
        </mxCell>
        <mxCell id="Z1v8-S3hPdBWoo8_pZV9-30" value="Fin" style="ellipse;whiteSpace=wrap;html=1;" vertex="1" parent="1">
          <mxGeometry x="640" y="430" width="80" height="80" as="geometry" />
        </mxCell>
        <mxCell id="Z1v8-S3hPdBWoo8_pZV9-41" style="edgeStyle=orthogonalEdgeStyle;rounded=0;orthogonalLoop=1;jettySize=auto;html=1;entryX=0.5;entryY=1;entryDx=0;entryDy=0;" edge="1" parent="1" source="Z1v8-S3hPdBWoo8_pZV9-39" target="Z1v8-S3hPdBWoo8_pZV9-30">
          <mxGeometry relative="1" as="geometry">
            <mxPoint x="750" y="450" as="targetPoint" />
          </mxGeometry>
        </mxCell>
        <mxCell id="Z1v8-S3hPdBWoo8_pZV9-39" value="Puede Ejecutar comando" style="whiteSpace=wrap;html=1;" vertex="1" parent="1">
          <mxGeometry x="80" y="510" width="120" height="60" as="geometry" />
        </mxCell>
        <mxCell id="Z1v8-S3hPdBWoo8_pZV9-43" value="Si" style="text;html=1;align=center;verticalAlign=middle;resizable=0;points=[];autosize=1;strokeColor=none;fillColor=none;" vertex="1" parent="1">
          <mxGeometry x="145" y="328" width="30" height="30" as="geometry" />
        </mxCell>
        <mxCell id="Z1v8-S3hPdBWoo8_pZV9-44" value="&lt;font style=&quot;font-size: 18px;&quot;&gt;&lt;b&gt;Solicitud del Api comandos&lt;/b&gt;&lt;/font&gt;" style="text;html=1;align=center;verticalAlign=middle;resizable=0;points=[];autosize=1;strokeColor=none;fillColor=none;" vertex="1" parent="1">
          <mxGeometry x="285" y="30" width="260" height="40" as="geometry" />
        </mxCell>
      </root>
    </mxGraphModel>
  </diagram>
</mxfile>
